<?xml version="1.0" encoding="UTF-8" standalone="no"?>
<!DOCTYPE svg PUBLIC "-//W3C//DTD SVG 1.0//EN" "http://www.w3.org/TR/2001/PR-SVG-20010719/DTD/svg10.dtd">
<svg width="76cm" height="43cm" viewBox="258 186 1503 856" xmlns="http://www.w3.org/2000/svg" xmlns:xlink="http://www.w3.org/1999/xlink">
  <g>
    <rect style="fill: none; fill-opacity:0; stroke-width: 2; stroke-dasharray: 10; stroke: #0000ff" x="456.112" y="813.988" width="916.082" height="139.384"/>
    <text font-size="12.8" style="fill: #000000;text-anchor:middle;font-family:sans-serif;font-style:normal;font-weight:normal" x="914.153" y="887.561">
      <tspan x="914.153" y="887.561"></tspan>
    </text>
  </g>
  <g>
    <rect style="fill: #90b4bf" x="425.502" y="320" width="108" height="47.4"/>
    <path style="fill: #90b4bf" d="M 425.502,320 A 20,20 0 0 0 405.502,340 L 425.502,340 z"/>
    <path style="fill: #90b4bf" d="M 553.502,340 A 20,20 0 0 0 533.502,320 L 533.502,340 z"/>
    <rect style="fill: #90b4bf" x="405.502" y="340" width="148" height="7.4"/>
    <path style="fill: #90b4bf" d="M 405.502,347.4 A 20,20 0 0 0 425.502,367.4 L 425.502,347.4 z"/>
    <path style="fill: #90b4bf" d="M 533.502,367.4 A 20,20 0 0 0 553.502,347.4 L 533.502,347.4 z"/>
    <line style="fill: none; fill-opacity:0; stroke-width: 2; stroke: #000000" x1="425.502" y1="320" x2="533.502" y2="320"/>
    <line style="fill: none; fill-opacity:0; stroke-width: 2; stroke: #000000" x1="425.502" y1="367.4" x2="533.502" y2="367.4"/>
    <path style="fill: none; fill-opacity:0; stroke-width: 2; stroke: #000000" d="M 425.502,320 A 20,20 0 0 0 405.502,340"/>
    <path style="fill: none; fill-opacity:0; stroke-width: 2; stroke: #000000" d="M 553.502,340 A 20,20 0 0 0 533.502,320"/>
    <line style="fill: none; fill-opacity:0; stroke-width: 2; stroke: #000000" x1="405.502" y1="340" x2="405.502" y2="347.4"/>
    <line style="fill: none; fill-opacity:0; stroke-width: 2; stroke: #000000" x1="553.502" y1="340" x2="553.502" y2="347.4"/>
    <path style="fill: none; fill-opacity:0; stroke-width: 2; stroke: #000000" d="M 405.502,347.4 A 20,20 0 0 0 425.502,367.4"/>
    <path style="fill: none; fill-opacity:0; stroke-width: 2; stroke: #000000" d="M 533.502,367.4 A 20,20 0 0 0 553.502,347.4"/>
    <text font-size="20.32" style="fill: #000000;text-anchor:middle;font-family:sans-serif;font-style:normal;font-weight:700" x="479.502" y="349.861">
      <tspan x="479.502" y="349.861">Frontend</tspan>
    </text>
  </g>
  <g>
    <rect style="fill: #ffffff" x="725.502" y="320" width="108" height="47.4"/>
    <path style="fill: #ffffff" d="M 725.502,320 A 20,20 0 0 0 705.502,340 L 725.502,340 z"/>
    <path style="fill: #ffffff" d="M 853.502,340 A 20,20 0 0 0 833.502,320 L 833.502,340 z"/>
    <rect style="fill: #ffffff" x="705.502" y="340" width="148" height="7.4"/>
    <path style="fill: #ffffff" d="M 705.502,347.4 A 20,20 0 0 0 725.502,367.4 L 725.502,347.4 z"/>
    <path style="fill: #ffffff" d="M 833.502,367.4 A 20,20 0 0 0 853.502,347.4 L 833.502,347.4 z"/>
    <line style="fill: none; fill-opacity:0; stroke-width: 2; stroke: #000000" x1="725.502" y1="320" x2="833.502" y2="320"/>
    <line style="fill: none; fill-opacity:0; stroke-width: 2; stroke: #000000" x1="725.502" y1="367.4" x2="833.502" y2="367.4"/>
    <path style="fill: none; fill-opacity:0; stroke-width: 2; stroke: #000000" d="M 725.502,320 A 20,20 0 0 0 705.502,340"/>
    <path style="fill: none; fill-opacity:0; stroke-width: 2; stroke: #000000" d="M 853.502,340 A 20,20 0 0 0 833.502,320"/>
    <line style="fill: none; fill-opacity:0; stroke-width: 2; stroke: #000000" x1="705.502" y1="340" x2="705.502" y2="347.4"/>
    <line style="fill: none; fill-opacity:0; stroke-width: 2; stroke: #000000" x1="853.502" y1="340" x2="853.502" y2="347.4"/>
    <path style="fill: none; fill-opacity:0; stroke-width: 2; stroke: #000000" d="M 705.502,347.4 A 20,20 0 0 0 725.502,367.4"/>
    <path style="fill: none; fill-opacity:0; stroke-width: 2; stroke: #000000" d="M 833.502,367.4 A 20,20 0 0 0 853.502,347.4"/>
    <text font-size="20.32" style="fill: #000000;text-anchor:middle;font-family:sans-serif;font-style:normal;font-weight:700" x="779.502" y="349.861">
      <tspan x="779.502" y="349.861">Server</tspan>
    </text>
  </g>
  <g>
    <rect style="fill: #ffffff" x="1026.42" y="320" width="108" height="47.4"/>
    <path style="fill: #ffffff" d="M 1026.42,320 A 20,20 0 0 0 1006.42,340 L 1026.42,340 z"/>
    <path style="fill: #ffffff" d="M 1154.42,340 A 20,20 0 0 0 1134.42,320 L 1134.42,340 z"/>
    <rect style="fill: #ffffff" x="1006.42" y="340" width="148" height="7.4"/>
    <path style="fill: #ffffff" d="M 1006.42,347.4 A 20,20 0 0 0 1026.42,367.4 L 1026.42,347.4 z"/>
    <path style="fill: #ffffff" d="M 1134.42,367.4 A 20,20 0 0 0 1154.42,347.4 L 1134.42,347.4 z"/>
    <line style="fill: none; fill-opacity:0; stroke-width: 2; stroke: #000000" x1="1026.42" y1="320" x2="1134.42" y2="320"/>
    <line style="fill: none; fill-opacity:0; stroke-width: 2; stroke: #000000" x1="1026.42" y1="367.4" x2="1134.42" y2="367.4"/>
    <path style="fill: none; fill-opacity:0; stroke-width: 2; stroke: #000000" d="M 1026.42,320 A 20,20 0 0 0 1006.42,340"/>
    <path style="fill: none; fill-opacity:0; stroke-width: 2; stroke: #000000" d="M 1154.42,340 A 20,20 0 0 0 1134.42,320"/>
    <line style="fill: none; fill-opacity:0; stroke-width: 2; stroke: #000000" x1="1006.42" y1="340" x2="1006.42" y2="347.4"/>
    <line style="fill: none; fill-opacity:0; stroke-width: 2; stroke: #000000" x1="1154.42" y1="340" x2="1154.42" y2="347.4"/>
    <path style="fill: none; fill-opacity:0; stroke-width: 2; stroke: #000000" d="M 1006.42,347.4 A 20,20 0 0 0 1026.42,367.4"/>
    <path style="fill: none; fill-opacity:0; stroke-width: 2; stroke: #000000" d="M 1134.42,367.4 A 20,20 0 0 0 1154.42,347.4"/>
    <text font-size="20.32" style="fill: #000000;text-anchor:middle;font-family:sans-serif;font-style:normal;font-weight:700" x="1080.42" y="349.861">
      <tspan x="1080.42" y="349.861">Client</tspan>
    </text>
  </g>
  <g>
    <rect style="fill: #ffffff" x="1320" y="300" width="120" height="72.8"/>
    <path style="fill: #ffffff" d="M 1320,300 A 20,20 0 0 0 1300,320 L 1320,320 z"/>
    <path style="fill: #ffffff" d="M 1460,320 A 20,20 0 0 0 1440,300 L 1440,320 z"/>
    <rect style="fill: #ffffff" x="1300" y="320" width="160" height="32.8"/>
    <path style="fill: #ffffff" d="M 1300,352.8 A 20,20 0 0 0 1320,372.8 L 1320,352.8 z"/>
    <path style="fill: #ffffff" d="M 1440,372.8 A 20,20 0 0 0 1460,352.8 L 1440,352.8 z"/>
    <line style="fill: none; fill-opacity:0; stroke-width: 2; stroke: #000000" x1="1320" y1="300" x2="1440" y2="300"/>
    <line style="fill: none; fill-opacity:0; stroke-width: 2; stroke: #000000" x1="1320" y1="372.8" x2="1440" y2="372.8"/>
    <path style="fill: none; fill-opacity:0; stroke-width: 2; stroke: #000000" d="M 1320,300 A 20,20 0 0 0 1300,320"/>
    <path style="fill: none; fill-opacity:0; stroke-width: 2; stroke: #000000" d="M 1460,320 A 20,20 0 0 0 1440,300"/>
    <line style="fill: none; fill-opacity:0; stroke-width: 2; stroke: #000000" x1="1300" y1="320" x2="1300" y2="352.8"/>
    <line style="fill: none; fill-opacity:0; stroke-width: 2; stroke: #000000" x1="1460" y1="320" x2="1460" y2="352.8"/>
    <path style="fill: none; fill-opacity:0; stroke-width: 2; stroke: #000000" d="M 1300,352.8 A 20,20 0 0 0 1320,372.8"/>
    <path style="fill: none; fill-opacity:0; stroke-width: 2; stroke: #000000" d="M 1440,372.8 A 20,20 0 0 0 1460,352.8"/>
    <text font-size="20.32" style="fill: #000000;text-anchor:middle;font-family:sans-serif;font-style:normal;font-weight:700" x="1380" y="329.861">
      <tspan x="1380" y="329.861">Each</tspan>
      <tspan x="1380" y="355.261">Subclient</tspan>
    </text>
  </g>
  <g>
    <rect style="fill: #90b4bf" x="1620" y="300" width="120" height="72.8"/>
    <path style="fill: #90b4bf" d="M 1620,300 A 20,20 0 0 0 1600,320 L 1620,320 z"/>
    <path style="fill: #90b4bf" d="M 1760,320 A 20,20 0 0 0 1740,300 L 1740,320 z"/>
    <rect style="fill: #90b4bf" x="1600" y="320" width="160" height="32.8"/>
    <path style="fill: #90b4bf" d="M 1600,352.8 A 20,20 0 0 0 1620,372.8 L 1620,352.8 z"/>
    <path style="fill: #90b4bf" d="M 1740,372.8 A 20,20 0 0 0 1760,352.8 L 1740,352.8 z"/>
    <line style="fill: none; fill-opacity:0; stroke-width: 2; stroke: #000000" x1="1620" y1="300" x2="1740" y2="300"/>
    <line style="fill: none; fill-opacity:0; stroke-width: 2; stroke: #000000" x1="1620" y1="372.8" x2="1740" y2="372.8"/>
    <path style="fill: none; fill-opacity:0; stroke-width: 2; stroke: #000000" d="M 1620,300 A 20,20 0 0 0 1600,320"/>
    <path style="fill: none; fill-opacity:0; stroke-width: 2; stroke: #000000" d="M 1760,320 A 20,20 0 0 0 1740,300"/>
    <line style="fill: none; fill-opacity:0; stroke-width: 2; stroke: #000000" x1="1600" y1="320" x2="1600" y2="352.8"/>
    <line style="fill: none; fill-opacity:0; stroke-width: 2; stroke: #000000" x1="1760" y1="320" x2="1760" y2="352.8"/>
    <path style="fill: none; fill-opacity:0; stroke-width: 2; stroke: #000000" d="M 1600,352.8 A 20,20 0 0 0 1620,372.8"/>
    <path style="fill: none; fill-opacity:0; stroke-width: 2; stroke: #000000" d="M 1740,372.8 A 20,20 0 0 0 1760,352.8"/>
    <text font-size="20.32" style="fill: #000000;text-anchor:middle;font-family:sans-serif;font-style:normal;font-weight:700" x="1680" y="329.861">
      <tspan x="1680" y="329.861">Each</tspan>
      <tspan x="1680" y="355.261">profiler</tspan>
    </text>
  </g>
  <line style="fill: none; fill-opacity:0; stroke-width: 2; stroke: #000000" x1="480" y1="367.68" x2="480.498" y2="1040.28"/>
  <line style="fill: none; fill-opacity:0; stroke-width: 2; stroke: #000000" x1="779.502" y1="367.4" x2="780" y2="440"/>
  <line style="fill: none; fill-opacity:0; stroke-width: 2; stroke: #000000" x1="1080" y1="367.778" x2="1079.58" y2="1040.38"/>
  <line style="fill: none; fill-opacity:0; stroke-width: 2; stroke: #000000" x1="1380" y1="372.8" x2="1380" y2="1040"/>
  <line style="fill: none; fill-opacity:0; stroke-width: 2; stroke: #000000" x1="1680" y1="372.8" x2="1680" y2="1040"/>
  <g>
    <line style="fill: none; fill-opacity:0; stroke-width: 2; stroke: #000000" x1="480" y1="400" x2="769" y2="400"/>
    <polygon style="fill: #000000" points="769,405 779,400 769,395 "/>
    <polygon style="fill: none; fill-opacity:0; stroke-width: 2; stroke: #000000" points="769,405 779,400 769,395 "/>
  </g>
  <g>
    <line style="fill: none; fill-opacity:0; stroke-width: 2; stroke: #000000" x1="780" y1="420" x2="1069" y2="420"/>
    <polygon style="fill: #000000" points="1069,425 1079,420 1069,415 "/>
    <polygon style="fill: none; fill-opacity:0; stroke-width: 2; stroke: #000000" points="1069,425 1079,420 1069,415 "/>
  </g>
  <g>
    <line style="fill: none; fill-opacity:0; stroke-width: 2; stroke: #000000" x1="480" y1="460" x2="1069" y2="460"/>
    <polygon style="fill: #000000" points="1069,465 1079,460 1069,455 "/>
    <polygon style="fill: none; fill-opacity:0; stroke-width: 2; stroke: #000000" points="1069,465 1079,460 1069,455 "/>
  </g>
  <g>
    <line style="fill: none; fill-opacity:0; stroke-width: 2; stroke: #000000" x1="480" y1="500" x2="1069" y2="500"/>
    <polygon style="fill: #000000" points="1069,505 1079,500 1069,495 "/>
    <polygon style="fill: none; fill-opacity:0; stroke-width: 2; stroke: #000000" points="1069,505 1079,500 1069,495 "/>
  </g>
  <g>
    <line style="fill: none; fill-opacity:0; stroke-width: 2; stroke: #000000" x1="1080" y1="600" x2="491" y2="600"/>
    <polygon style="fill: #000000" points="491,595 481,600 491,605 "/>
    <polygon style="fill: none; fill-opacity:0; stroke-width: 2; stroke: #000000" points="491,595 481,600 491,605 "/>
  </g>
  <g>
    <line style="fill: none; fill-opacity:0; stroke-width: 2; stroke: #000000" x1="1080" y1="520" x2="1369" y2="520"/>
    <polygon style="fill: #000000" points="1369,525 1379,520 1369,515 "/>
    <polygon style="fill: none; fill-opacity:0; stroke-width: 2; stroke: #000000" points="1369,525 1379,520 1369,515 "/>
  </g>
  <g>
    <line style="fill: none; fill-opacity:0; stroke-width: 2; stroke: #000000" x1="1391" y1="560" x2="1680" y2="560"/>
    <polygon style="fill: #000000" points="1391,555 1381,560 1391,565 "/>
    <polygon style="fill: none; fill-opacity:0; stroke-width: 2; stroke: #000000" points="1391,555 1381,560 1391,565 "/>
  </g>
  <g>
    <line style="fill: none; fill-opacity:0; stroke-width: 2; stroke: #000000" x1="1380" y1="580" x2="1091" y2="580"/>
    <polygon style="fill: #000000" points="1091,575 1081,580 1091,585 "/>
    <polygon style="fill: none; fill-opacity:0; stroke-width: 2; stroke: #000000" points="1091,575 1081,580 1091,585 "/>
  </g>
  <g>
    <line style="fill: none; fill-opacity:0; stroke-width: 2; stroke: #000000" x1="1680" y1="680" x2="1391" y2="680"/>
    <polygon style="fill: #000000" points="1391,675 1381,680 1391,685 "/>
    <polygon style="fill: none; fill-opacity:0; stroke-width: 2; stroke: #000000" points="1391,675 1381,680 1391,685 "/>
  </g>
  <g>
    <line style="fill: none; fill-opacity:0; stroke-width: 2; stroke: #000000" x1="1680" y1="720" x2="1391" y2="720"/>
    <polygon style="fill: #000000" points="1391,715 1381,720 1391,725 "/>
    <polygon style="fill: none; fill-opacity:0; stroke-width: 2; stroke: #000000" points="1391,715 1381,720 1391,725 "/>
  </g>
  <g>
    <line style="fill: none; fill-opacity:0; stroke-width: 2; stroke: #000000" x1="1080" y1="740" x2="491" y2="740"/>
    <polygon style="fill: #000000" points="491,735 481,740 491,745 "/>
    <polygon style="fill: none; fill-opacity:0; stroke-width: 2; stroke: #000000" points="491,735 481,740 491,745 "/>
  </g>
  <g>
    <rect style="fill: #ffffff" x="1180" y="840" width="22" height="100"/>
    <rect style="fill: none; fill-opacity:0; stroke-width: 2; stroke: #000000" x="1180" y="840" width="22" height="100"/>
    <text font-size="12.8" style="fill: #000000;text-anchor:middle;font-family:sans-serif;font-style:normal;font-weight:normal" x="1191" y="893.881">
      <tspan x="1191" y="893.881"></tspan>
    </text>
  </g>
  <g>
    <line style="fill: none; fill-opacity:0; stroke-width: 2; stroke: #000000" x1="1080" y1="780" x2="491" y2="780"/>
    <polygon style="fill: #000000" points="491,775 481,780 491,785 "/>
    <polygon style="fill: none; fill-opacity:0; stroke-width: 2; stroke: #000000" points="491,775 481,780 491,785 "/>
  </g>
  <g>
    <line style="fill: none; fill-opacity:0; stroke-width: 2; stroke: #000000" x1="480" y1="840" x2="1069" y2="840"/>
    <polygon style="fill: #000000" points="1069,845 1079,840 1069,835 "/>
    <polygon style="fill: none; fill-opacity:0; stroke-width: 2; stroke: #000000" points="1069,845 1079,840 1069,835 "/>
  </g>
  <g>
    <line style="fill: none; fill-opacity:0; stroke-width: 2; stroke: #000000" x1="480" y1="880" x2="1169" y2="880"/>
    <polygon style="fill: #000000" points="1169,885 1179,880 1169,875 "/>
    <polygon style="fill: none; fill-opacity:0; stroke-width: 2; stroke: #000000" points="1169,885 1179,880 1169,875 "/>
  </g>
  <g>
    <line style="fill: none; fill-opacity:0; stroke-width: 2; stroke: #000000" x1="480" y1="920" x2="1169" y2="920"/>
    <polygon style="fill: #000000" points="1169,925 1179,920 1169,915 "/>
    <polygon style="fill: none; fill-opacity:0; stroke-width: 2; stroke: #000000" points="1169,925 1179,920 1169,915 "/>
  </g>
  <g>
    <line style="fill: none; fill-opacity:0; stroke-width: 2; stroke: #000000" x1="480" y1="980" x2="1069" y2="980"/>
    <polygon style="fill: #000000" points="1069,985 1079,980 1069,975 "/>
    <polygon style="fill: none; fill-opacity:0; stroke-width: 2; stroke: #000000" points="1069,985 1079,980 1069,975 "/>
  </g>
  <g>
    <line style="fill: none; fill-opacity:0; stroke-width: 2; stroke: #000000" x1="1080" y1="1020" x2="491" y2="1020"/>
    <polygon style="fill: #000000" points="491,1015 481,1020 491,1025 "/>
    <polygon style="fill: none; fill-opacity:0; stroke-width: 2; stroke: #000000" points="491,1015 481,1020 491,1025 "/>
  </g>
  <g>
    <line style="fill: none; fill-opacity:0; stroke-width: 2; stroke: #000000" x1="1080" y1="860" x2="1169" y2="860"/>
    <polygon style="fill: #000000" points="1169,865 1179,860 1169,855 "/>
    <polygon style="fill: none; fill-opacity:0; stroke-width: 2; stroke: #000000" points="1169,865 1179,860 1169,855 "/>
  </g>
  <text font-size="12.8" style="fill: #000000;text-anchor:start;font-family:sans-serif;font-style:normal;font-weight:normal" x="680" y="400">
    <tspan x="680" y="400"></tspan>
  </text>
  <text font-size="12.8" style="fill: #000000;text-anchor:start;font-family:sans-serif;font-style:normal;font-weight:normal" x="500" y="395.416">
    <tspan x="500" y="395.416">connects to</tspan>
  </text>
  <text font-size="12.8" style="fill: #000000;text-anchor:start;font-family:sans-serif;font-style:normal;font-weight:normal" x="800" y="415.416">
    <tspan x="800" y="415.416">spawns and transfers connection to</tspan>
  </text>
  <text font-size="12.8" style="fill: #000000;text-anchor:start;font-family:sans-serif;font-style:normal;font-weight:normal" x="500" y="455.416">
    <tspan x="500" y="455.416">sends "startX &lt;result directory&gt;"</tspan>
  </text>
  <text font-size="12.8" style="fill: #000000;text-anchor:start;font-family:sans-serif;font-style:normal;font-weight:normal" x="500" y="495.416">
    <tspan x="500" y="495.416">sends "&lt;profiled filename&gt;"</tspan>
  </text>
  <text font-size="12.8" style="fill: #000000;text-anchor:start;font-family:sans-serif;font-style:normal;font-weight:normal" x="1100" y="515.416">
    <tspan x="1100" y="515.416">spawns X instances of</tspan>
  </text>
  <text font-size="12.8" style="fill: #000000;text-anchor:end;font-family:sans-serif;font-style:normal;font-weight:normal" x="1660" y="554.602">
    <tspan x="1660" y="554.602">connects to</tspan>
  </text>
  <g>
    <line style="fill: none; fill-opacity:0; stroke-width: 2; stroke: #000000" x1="1080" y1="540" x2="491" y2="540"/>
    <polygon style="fill: #000000" points="491,535 481,540 491,545 "/>
    <polygon style="fill: none; fill-opacity:0; stroke-width: 2; stroke: #000000" points="491,535 481,540 491,545 "/>
  </g>
  <text font-size="12.8" style="fill: #000000;text-anchor:end;font-family:sans-serif;font-style:normal;font-weight:normal" x="1060" y="520">
    <tspan x="1060" y="520">sends "&lt;type&gt; &lt;conn. details&gt; &lt;conn. details&gt; ... &lt;conn. details&gt;"</tspan>
    <tspan x="1060" y="536">(with one &lt;conn. details&gt; per Subclient instance)</tspan>
  </text>
  <text font-size="12.8" style="fill: #000000;text-anchor:end;font-family:sans-serif;font-style:normal;font-weight:normal" x="1360" y="575.416">
    <tspan x="1360" y="575.416">notifies</tspan>
  </text>
  <text font-size="12.8" style="fill: #000000;text-anchor:end;font-family:sans-serif;font-style:normal;font-weight:normal" x="1060" y="595.416">
    <tspan x="1060" y="595.416">sends "start_profile" (after all instances of Subclient have a connection)</tspan>
  </text>
  <text font-size="12.8" style="fill: #000000;text-anchor:end;font-family:sans-serif;font-style:normal;font-weight:normal" x="1660" y="660">
    <tspan x="1660" y="660">sends profiling data separated</tspan>
    <tspan x="1660" y="676">by newline</tspan>
  </text>
  <text font-size="12.8" style="fill: #000000;text-anchor:end;font-family:sans-serif;font-style:normal;font-weight:normal" x="1660" y="700">
    <tspan x="1660" y="700">sends "&lt;STOP&gt;" and terminates</tspan>
    <tspan x="1660" y="716">connection</tspan>
  </text>
  <text font-size="12.8" style="fill: #000000;text-anchor:end;font-family:sans-serif;font-style:normal;font-weight:normal" x="1060" y="735.416">
    <tspan x="1060" y="735.416">sends "out_files" (after all instances of Subclient finish executing)</tspan>
  </text>
  <text font-size="12.8" style="fill: #000000;text-anchor:end;font-family:sans-serif;font-style:normal;font-weight:normal" x="1060" y="775.416">
    <tspan x="1060" y="775.416">sends "&lt;type&gt; &lt;conn. details&gt;" for the file transfer server</tspan>
  </text>
  <text font-size="12.8" style="fill: #000000;text-anchor:start;font-family:sans-serif;font-style:normal;font-weight:normal" x="500" y="835.416">
    <tspan x="500" y="835.416">sends "p &lt;name of file to be put in 'processed'&gt;" or "o &lt;name of file to be put in 'out'&gt;"</tspan>
  </text>
  <text font-size="12.8" style="fill: #000000;text-anchor:start;font-family:sans-serif;font-style:normal;font-weight:normal" x="1100" y="855.416">
    <tspan x="1100" y="855.416">starts</tspan>
  </text>
  <text font-size="12.8" style="fill: #000000;text-anchor:start;font-family:sans-serif;font-style:normal;font-weight:normal" x="500" y="875.416">
    <tspan x="500" y="875.416">connects to</tspan>
  </text>
  <text font-size="12.8" style="fill: #000000;text-anchor:start;font-family:sans-serif;font-style:normal;font-weight:normal" x="500" y="915.416">
    <tspan x="500" y="915.416">sends file data and terminates connection</tspan>
  </text>
  <text font-size="12.8" style="fill: #000000;text-anchor:start;font-family:sans-serif;font-style:normal;font-weight:normal" x="500" y="975.416">
    <tspan x="500" y="975.416">sends "&lt;STOP&gt;"</tspan>
  </text>
  <text font-size="12.8" style="fill: #000000;text-anchor:end;font-family:sans-serif;font-style:normal;font-weight:normal" x="1060" y="1015.42">
    <tspan x="1060" y="1015.42">sends "finished"</tspan>
  </text>
  <text font-size="12.8" style="fill: #000000;text-anchor:start;font-family:sans-serif;font-style:normal;font-weight:normal" x="1340" y="840">
    <tspan x="1340" y="840"></tspan>
  </text>
  <text font-size="18.0622" style="fill: #000000;text-anchor:middle;font-family:sans-serif;font-style:normal;font-weight:700" x="1289" y="873.754">
    <tspan x="1289" y="873.754">Client separate</tspan>
    <tspan x="1289" y="896.332">server for file</tspan>
    <tspan x="1289" y="918.91">transfer</tspan>
  </text>
  <text font-size="12.8" style="fill: #000000;text-anchor:start;font-family:sans-serif;font-style:normal;font-weight:normal" x="429.518" y="869.926">
    <tspan x="429.518" y="869.926"></tspan>
  </text>
  <text font-size="14.6756" style="fill: #0000ff;text-anchor:end;font-family:sans-serif;font-style:italic;font-weight:normal" x="443.272" y="847">
    <tspan x="443.272" y="847">Performed for each</tspan>
    <tspan x="443.272" y="865.344">file to be transferred,</tspan>
    <tspan x="443.272" y="883.689">can also be done 0 times</tspan>
    <tspan x="443.272" y="902.033">in case of no files</tspan>
  </text>
  <g>
    <path style="fill: none; fill-opacity:0; stroke-width: 2; stroke-dasharray: 10; stroke: #0000ff" d="M 900,220 A 163.249,163.249 0 0 0 783.895,309.936"/>
    <polygon style="fill: #0000ff" points="778.913,307.931 779.871,319.071 788.208,311.621 "/>
    <polygon style="fill: none; fill-opacity:0; stroke-width: 2; stroke: #0000ff" points="778.913,307.931 779.871,319.071 788.208,311.621 "/>
  </g>
  <text font-size="12.8" style="fill: #000000;text-anchor:start;font-family:sans-serif;font-style:normal;font-weight:normal" x="1300" y="260">
    <tspan x="1300" y="260"></tspan>
  </text>
  <text font-size="14.6756" style="fill: #0000ff;text-anchor:start;font-family:sans-serif;font-style:italic;font-weight:normal" x="920" y="200">
    <tspan x="920" y="200">Can handle multiple</tspan>
    <tspan x="920" y="218.344">connections simultaneously,</tspan>
    <tspan x="920" y="236.689">with one Client instance</tspan>
    <tspan x="920" y="255.033">per connection</tspan>
  </text>
  <g>
    <line style="fill: none; fill-opacity:0; stroke-width: 2; stroke: #000000" x1="1069" y1="629.204" x2="480" y2="629.204"/>
    <polygon style="fill: #000000" points="1069,634.204 1079,629.204 1069,624.204 "/>
    <polygon style="fill: none; fill-opacity:0; stroke-width: 2; stroke: #000000" points="1069,634.204 1079,629.204 1069,624.204 "/>
  </g>
  <text font-size="12.8" style="fill: #000000;text-anchor:end;font-family:sans-serif;font-style:normal;font-weight:normal" x="888.686" y="624.243">
    <tspan x="888.686" y="624.243">sends current Unix timestamp to indicate profiling start time</tspan>
  </text>
  <g>
    <line style="fill: none; fill-opacity:0; stroke-width: 2; stroke: #000000" x1="1080" y1="658.41" x2="491" y2="658.41"/>
    <polygon style="fill: #000000" points="491,653.41 481,658.41 491,663.41 "/>
    <polygon style="fill: none; fill-opacity:0; stroke-width: 2; stroke: #000000" points="491,653.41 481,658.41 491,663.41 "/>
  </g>
  <text font-size="12.8" style="fill: #000000;text-anchor:end;font-family:sans-serif;font-style:normal;font-weight:normal" x="1060" y="652.24">
    <tspan x="1060" y="652.24">sends "tstamp_ack"</tspan>
  </text>
</svg>
